<svg width="178" height="36" viewBox="0 0 178 36" fill="none" xmlns="http://www.w3.org/2000/svg">
<g clip-path="url(#clip0_626_771)">
<path fill-rule="evenodd" clip-rule="evenodd" d="M0.0200721 7.24486C0.309205 3.19539 3.68599 0 7.80911 0H42.9501C47.0732 0 50.4499 3.19539 50.7391 7.24486H0.0200721ZM0 14.4447H50.7592V28.1903C50.7592 32.5032 47.2629 35.9995 42.9501 35.9995H7.80911C3.49625 35.9995 0 32.5032 0 28.1903V14.4447ZM8.27992 20.6997C6.78874 20.6997 5.57992 21.9085 5.57992 23.3997V27.4496C5.57992 28.9407 6.78874 30.1496 8.27992 30.1496C9.77099 30.1496 10.9798 28.9407 10.9798 27.4496V23.3997C10.9798 21.9085 9.77099 20.6997 8.27992 20.6997ZM14.1298 20.0247C14.1298 18.5335 15.3386 17.3247 16.8297 17.3247C18.3209 17.3247 19.5297 18.5335 19.5297 20.0247V30.8245C19.5297 32.3157 18.3209 33.5245 16.8297 33.5245C15.3386 33.5245 14.1298 32.3157 14.1298 30.8245V20.0247ZM25.3796 20.6997C23.8884 20.6997 22.6797 21.9085 22.6797 23.3997V27.4496C22.6797 28.9407 23.8884 30.1496 25.3796 30.1496C26.8707 30.1496 28.0796 28.9407 28.0796 27.4496V23.3997C28.0796 21.9085 26.8707 20.6997 25.3796 20.6997ZM31.2295 20.0247C31.2295 18.5335 32.4383 17.3247 33.9295 17.3247C35.4206 17.3247 36.6294 18.5335 36.6294 20.0247V30.8245C36.6294 32.3157 35.4206 33.5245 33.9295 33.5245C32.4383 33.5245 31.2295 32.3157 31.2295 30.8245V20.0247ZM42.4794 20.6997C40.9882 20.6997 39.7794 21.9085 39.7794 23.3997V27.4496C39.7794 28.9407 40.9882 30.1496 42.4794 30.1496C43.9704 30.1496 45.1793 28.9407 45.1793 27.4496V23.3997C45.1793 21.9085 43.9704 20.6997 42.4794 20.6997Z" fill="white"/>
</g>
<path d="M81.6688 13.72C81.6688 14.94 81.3888 16.06 80.8288 17.08C80.2688 18.08 79.4088 18.89 78.2488 19.51C77.0888 20.13 75.6488 20.44 73.9288 20.44H70.7488V28H65.6188V6.94H73.9288C75.6088 6.94 77.0288 7.23 78.1888 7.81C79.3488 8.39 80.2188 9.19 80.7988 10.21C81.3788 11.23 81.6688 12.4 81.6688 13.72ZM73.5388 16.36C74.5188 16.36 75.2488 16.13 75.7288 15.67C76.2088 15.21 76.4488 14.56 76.4488 13.72C76.4488 12.88 76.2088 12.23 75.7288 11.77C75.2488 11.31 74.5188 11.08 73.5388 11.08H70.7488V16.36H73.5388ZM83.3195 19.6C83.3195 17.88 83.6395 16.37 84.2795 15.07C84.9395 13.77 85.8295 12.77 86.9495 12.07C88.0695 11.37 89.3195 11.02 90.6995 11.02C91.8795 11.02 92.9095 11.26 93.7895 11.74C94.6895 12.22 95.3795 12.85 95.8595 13.63V11.26H100.989V28H95.8595V25.63C95.3595 26.41 94.6595 27.04 93.7595 27.52C92.8795 28 91.8495 28.24 90.6695 28.24C89.3095 28.24 88.0695 27.89 86.9495 27.19C85.8295 26.47 84.9395 25.46 84.2795 24.16C83.6395 22.84 83.3195 21.32 83.3195 19.6ZM95.8595 19.63C95.8595 18.35 95.4995 17.34 94.7795 16.6C94.0795 15.86 93.2195 15.49 92.1995 15.49C91.1795 15.49 90.3095 15.86 89.5895 16.6C88.8895 17.32 88.5395 18.32 88.5395 19.6C88.5395 20.88 88.8895 21.9 89.5895 22.66C90.3095 23.4 91.1795 23.77 92.1995 23.77C93.2195 23.77 94.0795 23.4 94.7795 22.66C95.4995 21.92 95.8595 20.91 95.8595 19.63ZM121.801 11.26L111.301 35.95H105.781L109.621 27.43L102.811 11.26H108.541L112.411 21.73L116.251 11.26H121.801ZM131.276 28.24C129.636 28.24 128.156 27.89 126.836 27.19C125.536 26.49 124.506 25.49 123.746 24.19C123.006 22.89 122.636 21.37 122.636 19.63C122.636 17.91 123.016 16.4 123.776 15.1C124.536 13.78 125.576 12.77 126.896 12.07C128.216 11.37 129.696 11.02 131.336 11.02C132.976 11.02 134.456 11.37 135.776 12.07C137.096 12.77 138.136 13.78 138.896 15.1C139.656 16.4 140.036 17.91 140.036 19.63C140.036 21.35 139.646 22.87 138.866 24.19C138.106 25.49 137.056 26.49 135.716 27.19C134.396 27.89 132.916 28.24 131.276 28.24ZM131.276 23.8C132.256 23.8 133.086 23.44 133.766 22.72C134.466 22 134.816 20.97 134.816 19.63C134.816 18.29 134.476 17.26 133.796 16.54C133.136 15.82 132.316 15.46 131.336 15.46C130.336 15.46 129.506 15.82 128.846 16.54C128.186 17.24 127.856 18.27 127.856 19.63C127.856 20.97 128.176 22 128.816 22.72C129.476 23.44 130.296 23.8 131.276 23.8ZM147.887 5.8V28H142.757V5.8H147.887ZM154.185 9.52C153.285 9.52 152.545 9.26 151.965 8.74C151.405 8.2 151.125 7.54 151.125 6.76C151.125 5.96 151.405 5.3 151.965 4.78C152.545 4.24 153.285 3.97 154.185 3.97C155.065 3.97 155.785 4.24 156.345 4.78C156.925 5.3 157.215 5.96 157.215 6.76C157.215 7.54 156.925 8.2 156.345 8.74C155.785 9.26 155.065 9.52 154.185 9.52ZM156.735 11.26V28H151.605V11.26H156.735ZM176.233 19.36C176.233 19.84 176.203 20.34 176.143 20.86H164.533C164.613 21.9 164.943 22.7 165.523 23.26C166.123 23.8 166.853 24.07 167.713 24.07C168.993 24.07 169.883 23.53 170.383 22.45H175.843C175.563 23.55 175.053 24.54 174.313 25.42C173.593 26.3 172.683 26.99 171.583 27.49C170.483 27.99 169.253 28.24 167.893 28.24C166.253 28.24 164.793 27.89 163.513 27.19C162.233 26.49 161.233 25.49 160.513 24.19C159.793 22.89 159.433 21.37 159.433 19.63C159.433 17.89 159.783 16.37 160.483 15.07C161.203 13.77 162.203 12.77 163.483 12.07C164.763 11.37 166.233 11.02 167.893 11.02C169.513 11.02 170.953 11.36 172.213 12.04C173.473 12.72 174.453 13.69 175.153 14.95C175.873 16.21 176.233 17.68 176.233 19.36ZM170.983 18.01C170.983 17.13 170.683 16.43 170.083 15.91C169.483 15.39 168.733 15.13 167.833 15.13C166.973 15.13 166.243 15.38 165.643 15.88C165.063 16.38 164.703 17.09 164.563 18.01H170.983Z" fill="white"/>
<defs>
<clipPath id="clip0_626_771">
<rect width="50.7592" height="36" fill="white"/>
</clipPath>
</defs>
</svg>
