<svg width="40" height="28" viewBox="0 0 40 28" fill="none" xmlns="http://www.w3.org/2000/svg">
<path fill-rule="evenodd" clip-rule="evenodd" d="M0.0158175 5.44818C0.243665 2.40295 2.90469 0 6.15385 0H33.8462C37.0953 0 39.7563 2.40295 39.9842 5.44818H0.0158175ZM0 10.8625H40V21.1993C40 24.4425 37.2448 27.0718 33.8462 27.0718H6.15385C2.75517 27.0718 0 24.4425 0 21.1993V10.8625ZM6.52486 15.5663C5.34976 15.5663 4.39717 16.4753 4.39717 17.5967V20.6422C4.39717 21.7636 5.34976 22.6726 6.52486 22.6726C7.69988 22.6726 8.65249 21.7636 8.65249 20.6422V17.5967C8.65249 16.4753 7.69988 15.5663 6.52486 15.5663ZM11.1348 15.0587C11.1348 13.9373 12.0873 13.0283 13.2624 13.0283C14.4375 13.0283 15.3901 13.9373 15.3901 15.0587V23.1802C15.3901 24.3016 14.4375 25.2106 13.2624 25.2106C12.0873 25.2106 11.1348 24.3016 11.1348 23.1802V15.0587ZM20 15.5663C18.8249 15.5663 17.8724 16.4753 17.8724 17.5967V20.6422C17.8724 21.7636 18.8249 22.6726 20 22.6726C21.1751 22.6726 22.1277 21.7636 22.1277 20.6422V17.5967C22.1277 16.4753 21.1751 15.5663 20 15.5663ZM24.6099 15.0587C24.6099 13.9373 25.5625 13.0283 26.7376 13.0283C27.9127 13.0283 28.8652 13.9373 28.8652 15.0587V23.1802C28.8652 24.3016 27.9127 25.2106 26.7376 25.2106C25.5625 25.2106 24.6099 24.3016 24.6099 23.1802V15.0587ZM33.4752 15.5663C32.3001 15.5663 31.3475 16.4753 31.3475 17.5967V20.6422C31.3475 21.7636 32.3001 22.6726 33.4752 22.6726C34.6502 22.6726 35.6028 21.7636 35.6028 20.6422V17.5967C35.6028 16.4753 34.6502 15.5663 33.4752 15.5663Z" fill="white"/>
</svg>
