<svg width="225" height="44" viewBox="0 0 225 44" fill="none" xmlns="http://www.w3.org/2000/svg">
<path fill-rule="evenodd" clip-rule="evenodd" d="M0.0209289 10.2087C0.322405 6.17947 3.84334 3 8.14246 3H44.7835C49.0826 3 52.6035 6.17947 52.905 10.2087H0.0209289ZM0 17.3727H52.926V31.0498C52.926 35.3411 49.2804 38.82 44.7835 38.82H8.14246C3.6455 38.82 0 35.3411 0 31.0498V17.3727ZM8.63336 23.5965C7.07853 23.5965 5.81811 24.7993 5.81811 26.283V30.3127C5.81811 31.7965 7.07853 32.9993 8.63336 32.9993C10.1881 32.9993 11.4485 31.7965 11.4485 30.3127V26.283C11.4485 24.7993 10.1881 23.5965 8.63336 23.5965ZM14.733 22.9248C14.733 21.4411 15.9933 20.2384 17.5481 20.2384C19.1029 20.2384 20.3634 21.4411 20.3634 22.9248V33.6709C20.3634 35.1546 19.1029 36.3574 17.5481 36.3574C15.9933 36.3574 14.733 35.1546 14.733 33.6709V22.9248ZM26.463 23.5965C24.9082 23.5965 23.6478 24.7993 23.6478 26.283V30.3127C23.6478 31.7965 24.9082 32.9993 26.463 32.9993C28.0178 32.9993 29.2782 31.7965 29.2782 30.3127V26.283C29.2782 24.7993 28.0178 23.5965 26.463 23.5965ZM32.5626 22.9248C32.5626 21.4411 33.823 20.2384 35.3778 20.2384C36.9326 20.2384 38.193 21.4411 38.193 22.9248V33.6709C38.193 35.1546 36.9326 36.3574 35.3778 36.3574C33.823 36.3574 32.5626 35.1546 32.5626 33.6709V22.9248ZM44.2927 23.5965C42.7379 23.5965 41.4774 24.7993 41.4774 26.283V30.3127C41.4774 31.7965 42.7379 32.9993 44.2927 32.9993C45.8474 32.9993 47.1079 31.7965 47.1079 30.3127V26.283C47.1079 24.7993 45.8474 23.5965 44.2927 23.5965Z" fill="white"/>
<path d="M96.88 13.96C96.88 15.5867 96.5067 17.08 95.76 18.44C95.0133 19.7733 93.8667 20.8533 92.32 21.68C90.7733 22.5067 88.8533 22.92 86.56 22.92H82.32V33H75.48V4.92H86.56C88.8 4.92 90.6933 5.30667 92.24 6.08C93.7867 6.85333 94.9467 7.92 95.72 9.28C96.4933 10.64 96.88 12.2 96.88 13.96ZM86.04 17.48C87.3467 17.48 88.32 17.1733 88.96 16.56C89.6 15.9467 89.92 15.08 89.92 13.96C89.92 12.84 89.6 11.9733 88.96 11.36C88.32 10.7467 87.3467 10.44 86.04 10.44H82.32V17.48H86.04ZM99.0809 21.8C99.0809 19.5067 99.5076 17.4933 100.361 15.76C101.241 14.0267 102.428 12.6933 103.921 11.76C105.414 10.8267 107.081 10.36 108.921 10.36C110.494 10.36 111.868 10.68 113.041 11.32C114.241 11.96 115.161 12.8 115.801 13.84V10.68H122.641V33H115.801V29.84C115.134 30.88 114.201 31.72 113.001 32.36C111.828 33 110.454 33.32 108.881 33.32C107.068 33.32 105.414 32.8533 103.921 31.92C102.428 30.96 101.241 29.6133 100.361 27.88C99.5076 26.12 99.0809 24.0933 99.0809 21.8ZM115.801 21.84C115.801 20.1333 115.321 18.7867 114.361 17.8C113.428 16.8133 112.281 16.32 110.921 16.32C109.561 16.32 108.401 16.8133 107.441 17.8C106.508 18.76 106.041 20.0933 106.041 21.8C106.041 23.5067 106.508 24.8667 107.441 25.88C108.401 26.8667 109.561 27.36 110.921 27.36C112.281 27.36 113.428 26.8667 114.361 25.88C115.321 24.8933 115.801 23.5467 115.801 21.84ZM150.389 10.68L136.389 43.6H129.029L134.149 32.24L125.069 10.68H132.709L137.869 24.64L142.989 10.68H150.389ZM163.023 33.32C160.836 33.32 158.863 32.8533 157.103 31.92C155.369 30.9867 153.996 29.6533 152.983 27.92C151.996 26.1867 151.503 24.16 151.503 21.84C151.503 19.5467 152.009 17.5333 153.023 15.8C154.036 14.04 155.423 12.6933 157.183 11.76C158.943 10.8267 160.916 10.36 163.103 10.36C165.289 10.36 167.263 10.8267 169.023 11.76C170.783 12.6933 172.169 14.04 173.183 15.8C174.196 17.5333 174.703 19.5467 174.703 21.84C174.703 24.1333 174.183 26.16 173.143 27.92C172.129 29.6533 170.729 30.9867 168.943 31.92C167.183 32.8533 165.209 33.32 163.023 33.32ZM163.023 27.4C164.329 27.4 165.436 26.92 166.343 25.96C167.276 25 167.743 23.6267 167.743 21.84C167.743 20.0533 167.289 18.68 166.383 17.72C165.503 16.76 164.409 16.28 163.103 16.28C161.769 16.28 160.663 16.76 159.783 17.72C158.903 18.6533 158.463 20.0267 158.463 21.84C158.463 23.6267 158.889 25 159.743 25.96C160.623 26.92 161.716 27.4 163.023 27.4ZM185.172 3.4V33H178.332V3.4H185.172ZM193.568 8.36C192.368 8.36 191.382 8.01333 190.608 7.32C189.862 6.6 189.488 5.72 189.488 4.68C189.488 3.61333 189.862 2.73333 190.608 2.04C191.382 1.32 192.368 0.959998 193.568 0.959998C194.742 0.959998 195.702 1.32 196.448 2.04C197.222 2.73333 197.608 3.61333 197.608 4.68C197.608 5.72 197.222 6.6 196.448 7.32C195.702 8.01333 194.742 8.36 193.568 8.36ZM196.968 10.68V33H190.128V10.68H196.968ZM222.965 21.48C222.965 22.12 222.925 22.7867 222.845 23.48H207.365C207.472 24.8667 207.912 25.9333 208.685 26.68C209.485 27.4 210.459 27.76 211.605 27.76C213.312 27.76 214.499 27.04 215.165 25.6H222.445C222.072 27.0667 221.392 28.3867 220.405 29.56C219.445 30.7333 218.232 31.6533 216.765 32.32C215.299 32.9867 213.659 33.32 211.845 33.32C209.659 33.32 207.712 32.8533 206.005 31.92C204.299 30.9867 202.965 29.6533 202.005 27.92C201.045 26.1867 200.565 24.16 200.565 21.84C200.565 19.52 201.032 17.4933 201.965 15.76C202.925 14.0267 204.259 12.6933 205.965 11.76C207.672 10.8267 209.632 10.36 211.845 10.36C214.005 10.36 215.925 10.8133 217.605 11.72C219.285 12.6267 220.592 13.92 221.525 15.6C222.485 17.28 222.965 19.24 222.965 21.48ZM215.965 19.68C215.965 18.5067 215.565 17.5733 214.765 16.88C213.965 16.1867 212.965 15.84 211.765 15.84C210.619 15.84 209.645 16.1733 208.845 16.84C208.072 17.5067 207.592 18.4533 207.405 19.68H215.965Z" fill="white"/>
</svg>
