<svg width="1710" height="240" viewBox="0 0 1710 240" fill="none" xmlns="http://www.w3.org/2000/svg">
<rect width="1710" height="240" rx="25" fill="#413CB9"/>
<path d="M829.674 101.37L814.803 148H801.04L822.357 90.4141H831.059L829.674 101.37ZM842.014 148L827.104 101.37L825.561 90.4141H834.381L855.778 148H842.014ZM841.381 126.563V136.53H811.362V126.563H841.381ZM878.796 148H866.14L866.219 138.033H878.796C881.67 138.033 884.096 137.374 886.074 136.056C888.051 134.711 889.554 132.733 890.583 130.123C891.611 127.486 892.125 124.283 892.125 120.512V117.862C892.125 115.015 891.835 112.51 891.255 110.348C890.675 108.159 889.818 106.327 888.684 104.85C887.55 103.374 886.14 102.266 884.452 101.528C882.791 100.79 880.879 100.42 878.717 100.42H865.903V90.4141H878.717C882.62 90.4141 886.179 91.0732 889.396 92.3916C892.639 93.71 895.434 95.5952 897.781 98.0474C900.154 100.5 901.986 103.4 903.278 106.749C904.57 110.097 905.216 113.828 905.216 117.941V120.512C905.216 124.599 904.57 128.33 903.278 131.705C901.986 135.054 900.154 137.954 897.781 140.406C895.434 142.832 892.652 144.704 889.436 146.022C886.219 147.341 882.672 148 878.796 148ZM873.457 90.4141V148H860.563V90.4141H873.457Z" fill="white"/>
</svg>
