<svg width="280" height="280" viewBox="0 0 280 280" fill="none" xmlns="http://www.w3.org/2000/svg">
<path opacity="0.15" d="M280 140C280 217.32 217.32 280 140 280C62.6801 280 0 217.32 0 140C0 62.6801 62.6801 0 140 0C217.32 0 280 62.6801 280 140ZM19.6 140C19.6 206.495 73.5049 260.4 140 260.4C206.495 260.4 260.4 206.495 260.4 140C260.4 73.5049 206.495 19.6 140 19.6C73.5049 19.6 19.6 73.5049 19.6 140Z" fill="#E266ED"/>
<path d="M140 9.8C140 4.38761 144.393 -0.0357142 149.793 0.342801C175.888 2.17224 201.021 11.2849 222.29 26.7376C246.209 44.1156 264.012 68.6195 273.148 96.7376C282.284 124.856 282.284 155.144 273.148 183.262C265.024 208.265 250.047 230.411 230.011 247.229C225.865 250.709 219.711 249.713 216.53 245.334V245.334C213.348 240.955 214.349 234.856 218.455 231.329C235.162 216.978 247.663 198.271 254.507 177.206C262.364 153.024 262.364 126.976 254.507 102.794C246.65 78.6128 231.339 57.5394 210.769 42.5944C192.85 29.5752 171.741 21.7891 149.789 19.9985C144.395 19.5585 140 15.2124 140 9.8V9.8Z" fill="#E266ED"/>
</svg>
