<svg width="104" height="22" viewBox="0 0 104 22" fill="none" xmlns="http://www.w3.org/2000/svg">
<path d="M44.0431 6.95601C44.0431 7.72871 43.8658 8.43801 43.5111 9.08401C43.1564 9.71731 42.6118 10.2303 41.8771 10.623C41.1424 11.0157 40.2304 11.212 39.1411 11.212H37.1271V16H33.8781V2.66201H39.1411C40.2051 2.66201 41.1044 2.84568 41.8391 3.21301C42.5738 3.58034 43.1248 4.08701 43.4921 4.73301C43.8594 5.37901 44.0431 6.12001 44.0431 6.95601ZM38.8941 8.62801C39.5148 8.62801 39.9771 8.48231 40.2811 8.19101C40.5851 7.89971 40.7371 7.48801 40.7371 6.95601C40.7371 6.42401 40.5851 6.01234 40.2811 5.72101C39.9771 5.42968 39.5148 5.28401 38.8941 5.28401H37.1271V8.62801H38.8941ZM45.0886 10.68C45.0886 9.59071 45.2912 8.63431 45.6966 7.81101C46.1146 6.98768 46.6782 6.35434 47.3876 5.91101C48.0969 5.46768 48.8886 5.24601 49.7626 5.24601C50.5099 5.24601 51.1622 5.39801 51.7196 5.70201C52.2896 6.00601 52.7266 6.40501 53.0306 6.89901V5.39801H56.2796V16H53.0306V14.499C52.7139 14.993 52.2706 15.392 51.7006 15.696C51.1432 16 50.4909 16.152 49.7436 16.152C48.8822 16.152 48.0969 15.9303 47.3876 15.487C46.6782 15.031 46.1146 14.3913 45.6966 13.568C45.2912 12.732 45.0886 11.7693 45.0886 10.68ZM53.0306 10.699C53.0306 9.88831 52.8026 9.24871 52.3466 8.78001C51.9032 8.31131 51.3586 8.07701 50.7126 8.07701C50.0666 8.07701 49.5156 8.31131 49.0596 8.78001C48.6162 9.23601 48.3946 9.86931 48.3946 10.68C48.3946 11.4907 48.6162 12.1367 49.0596 12.618C49.5156 13.0867 50.0666 13.321 50.7126 13.321C51.3586 13.321 51.9032 13.0867 52.3466 12.618C52.8026 12.1493 53.0306 11.5097 53.0306 10.699ZM69.4601 5.39801L62.8101 21.035H59.3141L61.7461 15.639L57.4331 5.39801H61.0621L63.5131 12.029L65.9451 5.39801H69.4601ZM75.4609 16.152C74.4223 16.152 73.4849 15.9303 72.6489 15.487C71.8256 15.0437 71.1733 14.4103 70.6919 13.587C70.2233 12.7637 69.9889 11.801 69.9889 10.699C69.9889 9.60971 70.2296 8.65331 70.7109 7.83001C71.1923 6.99401 71.8509 6.35434 72.6869 5.91101C73.5229 5.46768 74.4603 5.24601 75.4989 5.24601C76.5376 5.24601 77.4749 5.46768 78.3109 5.91101C79.1469 6.35434 79.8055 6.99401 80.2868 7.83001C80.7682 8.65331 81.0089 9.60971 81.0089 10.699C81.0089 11.7883 80.7619 12.751 80.2679 13.587C79.7866 14.4103 79.1216 15.0437 78.2729 15.487C77.4369 15.9303 76.4996 16.152 75.4609 16.152ZM75.4609 13.34C76.0816 13.34 76.6073 13.112 77.0379 12.656C77.4813 12.2 77.7029 11.5477 77.7029 10.699C77.7029 9.85031 77.4876 9.19801 77.0569 8.74201C76.6389 8.28601 76.1196 8.05801 75.4989 8.05801C74.8656 8.05801 74.3399 8.28601 73.9219 8.74201C73.5039 9.18531 73.2949 9.83771 73.2949 10.699C73.2949 11.5477 73.4976 12.2 73.9029 12.656C74.3209 13.112 74.8403 13.34 75.4609 13.34ZM85.9816 1.94001V16H82.7326V1.94001H85.9816ZM89.9701 4.29601C89.4001 4.29601 88.9315 4.13134 88.5641 3.80201C88.2095 3.46001 88.0321 3.04201 88.0321 2.54801C88.0321 2.04134 88.2095 1.62334 88.5641 1.29401C88.9315 0.952006 89.4001 0.781006 89.9701 0.781006C90.5275 0.781006 90.9835 0.952006 91.3381 1.29401C91.7055 1.62334 91.8891 2.04134 91.8891 2.54801C91.8891 3.04201 91.7055 3.46001 91.3381 3.80201C90.9835 4.13134 90.5275 4.29601 89.9701 4.29601ZM91.5851 5.39801V16H88.3361V5.39801H91.5851ZM103.934 10.528C103.934 10.832 103.915 11.1487 103.877 11.478H96.5236C96.5743 12.1367 96.7833 12.6433 97.1506 12.998C97.5306 13.34 97.993 13.511 98.5376 13.511C99.3483 13.511 99.9119 13.169 100.229 12.485H103.687C103.509 13.1817 103.186 13.8087 102.718 14.366C102.262 14.9233 101.685 15.3603 100.989 15.677C100.292 15.9937 99.513 16.152 98.6516 16.152C97.613 16.152 96.6883 15.9303 95.8776 15.487C95.067 15.0437 94.4336 14.4103 93.9776 13.587C93.5216 12.7637 93.2936 11.801 93.2936 10.699C93.2936 9.59701 93.5153 8.63431 93.9586 7.81101C94.4146 6.98768 95.048 6.35434 95.8586 5.91101C96.6693 5.46768 97.6003 5.24601 98.6516 5.24601C99.6776 5.24601 100.59 5.46134 101.388 5.89201C102.186 6.32268 102.806 6.93701 103.25 7.73501C103.706 8.53301 103.934 9.46401 103.934 10.528ZM100.609 9.67301C100.609 9.11571 100.419 8.67231 100.039 8.34301C99.6586 8.01371 99.1836 7.84901 98.6136 7.84901C98.069 7.84901 97.6066 8.00731 97.2266 8.32401C96.8593 8.64071 96.6313 9.09031 96.5426 9.67301H100.609Z" fill="#FF698D"/>
<path fill-rule="evenodd" clip-rule="evenodd" d="M0.0101865 4.67673C0.15692 2.62165 1.87062 1 3.96308 1H21.7969C23.8894 1 25.6031 2.62165 25.7498 4.67673H0.0101865ZM0 8.3306H25.76V15.3065C25.76 17.4952 23.9857 19.2695 21.7969 19.2695H3.96308C1.77433 19.2695 0 17.4952 0 15.3065V8.3306ZM4.20201 11.505C3.44525 11.505 2.83178 12.1185 2.83178 12.8752V14.9305C2.83178 15.6873 3.44525 16.3008 4.20201 16.3008C4.95872 16.3008 5.57221 15.6873 5.57221 14.9305V12.8752C5.57221 12.1185 4.95872 11.505 4.20201 11.505ZM7.17079 11.1624C7.17079 10.4057 7.78424 9.7922 8.54099 9.7922C9.29774 9.7922 9.91122 10.4057 9.91122 11.1624V16.6433C9.91122 17.4 9.29774 18.0135 8.54099 18.0135C7.78424 18.0135 7.17079 17.4 7.17079 16.6433V11.1624ZM12.88 11.505C12.1233 11.505 11.5098 12.1185 11.5098 12.8752V14.9305C11.5098 15.6873 12.1233 16.3008 12.88 16.3008C13.6368 16.3008 14.2502 15.6873 14.2502 14.9305V12.8752C14.2502 12.1185 13.6368 11.505 12.88 11.505ZM15.8488 11.1624C15.8488 10.4057 16.4623 9.7922 17.219 9.7922C17.9758 9.7922 18.5892 10.4057 18.5892 11.1624V16.6433C18.5892 17.4 17.9758 18.0135 17.219 18.0135C16.4623 18.0135 15.8488 17.4 15.8488 16.6433V11.1624ZM21.558 11.505C20.8013 11.505 20.1878 12.1185 20.1878 12.8752V14.9305C20.1878 15.6873 20.8013 16.3008 21.558 16.3008C22.3147 16.3008 22.9282 15.6873 22.9282 14.9305V12.8752C22.9282 12.1185 22.3147 11.505 21.558 11.505Z" fill="#FF698D"/>
</svg>
