<svg width="105" height="26" viewBox="0 0 105 26" fill="none" xmlns="http://www.w3.org/2000/svg">
<path d="M44.043 9.956C44.043 10.7287 43.8657 11.438 43.511 12.084C43.1563 12.7173 42.6117 13.2303 41.877 13.623C41.1423 14.0157 40.2303 14.212 39.141 14.212H37.127V19H33.878V5.662H39.141C40.205 5.662 41.1043 5.84567 41.839 6.213C42.5737 6.58033 43.1247 7.087 43.492 7.733C43.8593 8.379 44.043 9.12 44.043 9.956ZM38.894 11.628C39.5147 11.628 39.977 11.4823 40.281 11.191C40.585 10.8997 40.737 10.488 40.737 9.956C40.737 9.424 40.585 9.01233 40.281 8.721C39.977 8.42967 39.5147 8.284 38.894 8.284H37.127V11.628H38.894ZM45.0885 13.68C45.0885 12.5907 45.2911 11.6343 45.6965 10.811C46.1145 9.98767 46.6781 9.35433 47.3875 8.911C48.0968 8.46767 48.8885 8.246 49.7625 8.246C50.5098 8.246 51.1621 8.398 51.7195 8.702C52.2895 9.006 52.7265 9.405 53.0305 9.899V8.398H56.2795V19H53.0305V17.499C52.7138 17.993 52.2705 18.392 51.7005 18.696C51.1431 19 50.4908 19.152 49.7435 19.152C48.8821 19.152 48.0968 18.9303 47.3875 18.487C46.6781 18.031 46.1145 17.3913 45.6965 16.568C45.2911 15.732 45.0885 14.7693 45.0885 13.68ZM53.0305 13.699C53.0305 12.8883 52.8025 12.2487 52.3465 11.78C51.9031 11.3113 51.3585 11.077 50.7125 11.077C50.0665 11.077 49.5155 11.3113 49.0595 11.78C48.6161 12.236 48.3945 12.8693 48.3945 13.68C48.3945 14.4907 48.6161 15.1367 49.0595 15.618C49.5155 16.0867 50.0665 16.321 50.7125 16.321C51.3585 16.321 51.9031 16.0867 52.3465 15.618C52.8025 15.1493 53.0305 14.5097 53.0305 13.699ZM69.46 8.398L62.81 24.035H59.314L61.746 18.639L57.433 8.398H61.062L63.513 15.029L65.945 8.398H69.46ZM75.4608 19.152C74.4222 19.152 73.4848 18.9303 72.6488 18.487C71.8255 18.0437 71.1732 17.4103 70.6918 16.587C70.2232 15.7637 69.9888 14.801 69.9888 13.699C69.9888 12.6097 70.2295 11.6533 70.7108 10.83C71.1922 9.994 71.8508 9.35433 72.6868 8.911C73.5228 8.46767 74.4602 8.246 75.4988 8.246C76.5375 8.246 77.4748 8.46767 78.3108 8.911C79.1468 9.35433 79.8055 9.994 80.2868 10.83C80.7682 11.6533 81.0088 12.6097 81.0088 13.699C81.0088 14.7883 80.7618 15.751 80.2678 16.587C79.7865 17.4103 79.1215 18.0437 78.2728 18.487C77.4368 18.9303 76.4995 19.152 75.4608 19.152ZM75.4608 16.34C76.0815 16.34 76.6072 16.112 77.0378 15.656C77.4812 15.2 77.7028 14.5477 77.7028 13.699C77.7028 12.8503 77.4875 12.198 77.0568 11.742C76.6388 11.286 76.1195 11.058 75.4988 11.058C74.8655 11.058 74.3398 11.286 73.9218 11.742C73.5038 12.1853 73.2948 12.8377 73.2948 13.699C73.2948 14.5477 73.4975 15.2 73.9028 15.656C74.3208 16.112 74.8402 16.34 75.4608 16.34ZM85.9815 4.94V19H82.7325V4.94H85.9815ZM89.97 7.296C89.4 7.296 88.9314 7.13133 88.564 6.802C88.2094 6.46 88.032 6.042 88.032 5.548C88.032 5.04133 88.2094 4.62333 88.564 4.294C88.9314 3.952 89.4 3.781 89.97 3.781C90.5274 3.781 90.9834 3.952 91.338 4.294C91.7054 4.62333 91.889 5.04133 91.889 5.548C91.889 6.042 91.7054 6.46 91.338 6.802C90.9834 7.13133 90.5274 7.296 89.97 7.296ZM91.585 8.398V19H88.336V8.398H91.585ZM103.934 13.528C103.934 13.832 103.915 14.1487 103.877 14.478H96.5235C96.5742 15.1367 96.7832 15.6433 97.1505 15.998C97.5305 16.34 97.9929 16.511 98.5375 16.511C99.3482 16.511 99.9119 16.169 100.229 15.485H103.687C103.509 16.1817 103.186 16.8087 102.718 17.366C102.262 17.9233 101.685 18.3603 100.989 18.677C100.292 18.9937 99.5129 19.152 98.6515 19.152C97.6129 19.152 96.6882 18.9303 95.8775 18.487C95.0669 18.0437 94.4335 17.4103 93.9775 16.587C93.5215 15.7637 93.2935 14.801 93.2935 13.699C93.2935 12.597 93.5152 11.6343 93.9585 10.811C94.4145 9.98767 95.0479 9.35433 95.8585 8.911C96.6692 8.46767 97.6002 8.246 98.6515 8.246C99.6775 8.246 100.59 8.46133 101.388 8.892C102.186 9.32267 102.806 9.937 103.25 10.735C103.706 11.533 103.934 12.464 103.934 13.528ZM100.609 12.673C100.609 12.1157 100.419 11.6723 100.039 11.343C99.6585 11.0137 99.1835 10.849 98.6135 10.849C98.0689 10.849 97.6065 11.0073 97.2265 11.324C96.8592 11.6407 96.6312 12.0903 96.5425 12.673H100.609Z" fill="#F79AFF"/>
<path fill-rule="evenodd" clip-rule="evenodd" d="M0.0101865 7.67673C0.15692 5.62165 1.87062 4 3.96308 4H21.7969C23.8894 4 25.6031 5.62165 25.7498 7.67673H0.0101865ZM0 11.3306H25.76V18.3065C25.76 20.4952 23.9857 22.2695 21.7969 22.2695H3.96308C1.77433 22.2695 0 20.4952 0 18.3065V11.3306ZM4.20201 14.505C3.44525 14.505 2.83178 15.1185 2.83178 15.8752V17.9305C2.83178 18.6873 3.44525 19.3008 4.20201 19.3008C4.95872 19.3008 5.57221 18.6873 5.57221 17.9305V15.8752C5.57221 15.1185 4.95872 14.505 4.20201 14.505ZM7.17079 14.1624C7.17079 13.4057 7.78424 12.7922 8.54099 12.7922C9.29774 12.7922 9.91122 13.4057 9.91122 14.1624V19.6433C9.91122 20.4 9.29774 21.0135 8.54099 21.0135C7.78424 21.0135 7.17079 20.4 7.17079 19.6433V14.1624ZM12.88 14.505C12.1233 14.505 11.5098 15.1185 11.5098 15.8752V17.9305C11.5098 18.6873 12.1233 19.3008 12.88 19.3008C13.6368 19.3008 14.2502 18.6873 14.2502 17.9305V15.8752C14.2502 15.1185 13.6368 14.505 12.88 14.505ZM15.8488 14.1624C15.8488 13.4057 16.4623 12.7922 17.219 12.7922C17.9758 12.7922 18.5892 13.4057 18.5892 14.1624V19.6433C18.5892 20.4 17.9758 21.0135 17.219 21.0135C16.4623 21.0135 15.8488 20.4 15.8488 19.6433V14.1624ZM21.558 14.505C20.8013 14.505 20.1878 15.1185 20.1878 15.8752V17.9305C20.1878 18.6873 20.8013 19.3008 21.558 19.3008C22.3147 19.3008 22.9282 18.6873 22.9282 17.9305V15.8752C22.9282 15.1185 22.3147 14.505 21.558 14.505Z" fill="#F79AFF"/>
</svg>
