<svg width="247" height="36" viewBox="0 0 247 36" fill="none" xmlns="http://www.w3.org/2000/svg">
<g clip-path="url(#clip0_1286_2752)">
<path fill-rule="evenodd" clip-rule="evenodd" d="M0.0200721 7.24486C0.309205 3.19539 3.68599 0 7.80911 0H42.9501C47.0732 0 50.4499 3.19539 50.7391 7.24486H0.0200721ZM0 14.4447H50.7592V28.1903C50.7592 32.5032 47.2629 35.9995 42.9501 35.9995H7.80911C3.49625 35.9995 0 32.5032 0 28.1903V14.4447ZM8.27992 20.6997C6.78874 20.6997 5.57992 21.9085 5.57992 23.3997V27.4496C5.57992 28.9407 6.78874 30.1496 8.27992 30.1496C9.77099 30.1496 10.9798 28.9407 10.9798 27.4496V23.3997C10.9798 21.9085 9.77099 20.6997 8.27992 20.6997ZM14.1298 20.0247C14.1298 18.5335 15.3386 17.3247 16.8297 17.3247C18.3209 17.3247 19.5297 18.5335 19.5297 20.0247V30.8245C19.5297 32.3157 18.3209 33.5245 16.8297 33.5245C15.3386 33.5245 14.1298 32.3157 14.1298 30.8245V20.0247ZM25.3796 20.6997C23.8884 20.6997 22.6797 21.9085 22.6797 23.3997V27.4496C22.6797 28.9407 23.8884 30.1496 25.3796 30.1496C26.8707 30.1496 28.0796 28.9407 28.0796 27.4496V23.3997C28.0796 21.9085 26.8707 20.6997 25.3796 20.6997ZM31.2295 20.0247C31.2295 18.5335 32.4383 17.3247 33.9295 17.3247C35.4206 17.3247 36.6294 18.5335 36.6294 20.0247V30.8245C36.6294 32.3157 35.4206 33.5245 33.9295 33.5245C32.4383 33.5245 31.2295 32.3157 31.2295 30.8245V20.0247ZM42.4794 20.6997C40.9882 20.6997 39.7794 21.9085 39.7794 23.3997V27.4496C39.7794 28.9407 40.9882 30.1496 42.4794 30.1496C43.9704 30.1496 45.1793 28.9407 45.1793 27.4496V23.3997C45.1793 21.9085 43.9704 20.6997 42.4794 20.6997Z" fill="#F79AFF"/>
</g>
<path d="M83.6693 13.72C83.6693 14.94 83.3893 16.06 82.8293 17.08C82.2693 18.08 81.4093 18.89 80.2493 19.51C79.0893 20.13 77.6493 20.44 75.9293 20.44H72.7493V28H67.6193V6.94H75.9293C77.6093 6.94 79.0293 7.23 80.1893 7.81C81.3493 8.39 82.2193 9.19 82.7993 10.21C83.3793 11.23 83.6693 12.4 83.6693 13.72ZM75.5393 16.36C76.5193 16.36 77.2493 16.13 77.7293 15.67C78.2093 15.21 78.4493 14.56 78.4493 13.72C78.4493 12.88 78.2093 12.23 77.7293 11.77C77.2493 11.31 76.5193 11.08 75.5393 11.08H72.7493V16.36H75.5393ZM85.32 19.6C85.32 17.88 85.64 16.37 86.28 15.07C86.94 13.77 87.83 12.77 88.95 12.07C90.07 11.37 91.32 11.02 92.7 11.02C93.88 11.02 94.91 11.26 95.79 11.74C96.69 12.22 97.38 12.85 97.86 13.63V11.26H102.99V28H97.86V25.63C97.36 26.41 96.66 27.04 95.76 27.52C94.88 28 93.85 28.24 92.67 28.24C91.31 28.24 90.07 27.89 88.95 27.19C87.83 26.47 86.94 25.46 86.28 24.16C85.64 22.84 85.32 21.32 85.32 19.6ZM97.86 19.63C97.86 18.35 97.5 17.34 96.78 16.6C96.08 15.86 95.22 15.49 94.2 15.49C93.18 15.49 92.31 15.86 91.59 16.6C90.89 17.32 90.54 18.32 90.54 19.6C90.54 20.88 90.89 21.9 91.59 22.66C92.31 23.4 93.18 23.77 94.2 23.77C95.22 23.77 96.08 23.4 96.78 22.66C97.5 21.92 97.86 20.91 97.86 19.63ZM123.801 11.26L113.301 35.95H107.781L111.621 27.43L104.811 11.26H110.541L114.411 21.73L118.251 11.26H123.801ZM133.276 28.24C131.636 28.24 130.156 27.89 128.836 27.19C127.536 26.49 126.506 25.49 125.746 24.19C125.006 22.89 124.636 21.37 124.636 19.63C124.636 17.91 125.016 16.4 125.776 15.1C126.536 13.78 127.576 12.77 128.896 12.07C130.216 11.37 131.696 11.02 133.336 11.02C134.976 11.02 136.456 11.37 137.776 12.07C139.096 12.77 140.136 13.78 140.896 15.1C141.656 16.4 142.036 17.91 142.036 19.63C142.036 21.35 141.646 22.87 140.866 24.19C140.106 25.49 139.056 26.49 137.716 27.19C136.396 27.89 134.916 28.24 133.276 28.24ZM133.276 23.8C134.256 23.8 135.086 23.44 135.766 22.72C136.466 22 136.816 20.97 136.816 19.63C136.816 18.29 136.476 17.26 135.796 16.54C135.136 15.82 134.316 15.46 133.336 15.46C132.336 15.46 131.506 15.82 130.846 16.54C130.186 17.24 129.856 18.27 129.856 19.63C129.856 20.97 130.176 22 130.816 22.72C131.476 23.44 132.296 23.8 133.276 23.8ZM149.888 5.8V28H144.758V5.8H149.888ZM156.186 9.52C155.286 9.52 154.546 9.26 153.966 8.74C153.406 8.2 153.126 7.54 153.126 6.76C153.126 5.96 153.406 5.3 153.966 4.78C154.546 4.24 155.286 3.97 156.186 3.97C157.066 3.97 157.786 4.24 158.346 4.78C158.926 5.3 159.216 5.96 159.216 6.76C159.216 7.54 158.926 8.2 158.346 8.74C157.786 9.26 157.066 9.52 156.186 9.52ZM158.736 11.26V28H153.606V11.26H158.736ZM178.233 19.36C178.233 19.84 178.203 20.34 178.143 20.86H166.533C166.613 21.9 166.943 22.7 167.523 23.26C168.123 23.8 168.853 24.07 169.713 24.07C170.993 24.07 171.883 23.53 172.383 22.45H177.843C177.563 23.55 177.053 24.54 176.313 25.42C175.593 26.3 174.683 26.99 173.583 27.49C172.483 27.99 171.253 28.24 169.893 28.24C168.253 28.24 166.793 27.89 165.513 27.19C164.233 26.49 163.233 25.49 162.513 24.19C161.793 22.89 161.433 21.37 161.433 19.63C161.433 17.89 161.783 16.37 162.483 15.07C163.203 13.77 164.203 12.77 165.483 12.07C166.763 11.37 168.233 11.02 169.893 11.02C171.513 11.02 172.953 11.36 174.213 12.04C175.473 12.72 176.453 13.69 177.153 14.95C177.873 16.21 178.233 17.68 178.233 19.36ZM172.983 18.01C172.983 17.13 172.683 16.43 172.083 15.91C171.483 15.39 170.733 15.13 169.833 15.13C168.973 15.13 168.243 15.38 167.643 15.88C167.063 16.38 166.703 17.09 166.563 18.01H172.983Z" fill="#F79AFF"/>
<path d="M196.259 12.1C197.293 12.1 198.218 12.3167 199.034 12.75C199.868 13.1833 200.518 13.85 200.984 14.75C201.468 15.6333 201.709 16.7167 201.709 18V26H199.984V18.2C199.984 16.7167 199.609 15.5833 198.859 14.8C198.126 14.0167 197.118 13.625 195.834 13.625C194.518 13.625 193.468 14.0417 192.684 14.875C191.901 15.7083 191.509 16.9333 191.509 18.55V26H189.759V7.5H191.509V14.675C191.943 13.8583 192.576 13.225 193.409 12.775C194.259 12.325 195.209 12.1 196.259 12.1ZM217.93 18.475C217.93 19.075 217.913 19.5333 217.88 19.85H206.555C206.605 20.8833 206.855 21.7667 207.305 22.5C207.755 23.2333 208.346 23.7917 209.08 24.175C209.813 24.5417 210.613 24.725 211.48 24.725C212.613 24.725 213.563 24.45 214.33 23.9C215.113 23.35 215.63 22.6083 215.88 21.675H217.73C217.396 23.0083 216.68 24.1 215.58 24.95C214.496 25.7833 213.13 26.2 211.48 26.2C210.196 26.2 209.046 25.9167 208.03 25.35C207.013 24.7667 206.213 23.95 205.63 22.9C205.063 21.8333 204.78 20.5917 204.78 19.175C204.78 17.7583 205.063 16.5167 205.63 15.45C206.196 14.3833 206.988 13.5667 208.005 13C209.021 12.4333 210.18 12.15 211.48 12.15C212.78 12.15 213.913 12.4333 214.88 13C215.863 13.5667 216.613 14.3333 217.13 15.3C217.663 16.25 217.93 17.3083 217.93 18.475ZM216.155 18.425C216.171 17.4083 215.963 16.5417 215.53 15.825C215.113 15.1083 214.538 14.5667 213.805 14.2C213.071 13.8333 212.271 13.65 211.405 13.65C210.105 13.65 208.996 14.0667 208.08 14.9C207.163 15.7333 206.655 16.9083 206.555 18.425H216.155ZM222.881 7.5V26H221.131V7.5H222.881ZM228.569 15.35C229.003 14.4333 229.686 13.675 230.619 13.075C231.569 12.4583 232.694 12.15 233.994 12.15C235.228 12.15 236.336 12.4417 237.319 13.025C238.319 13.5917 239.094 14.4083 239.644 15.475C240.211 16.525 240.494 17.75 240.494 19.15C240.494 20.55 240.211 21.7833 239.644 22.85C239.094 23.9167 238.319 24.7417 237.319 25.325C236.336 25.9083 235.228 26.2 233.994 26.2C232.711 26.2 231.594 25.9 230.644 25.3C229.694 24.6833 229.003 23.9167 228.569 23V32.45H226.844V12.35H228.569V15.35ZM238.719 19.15C238.719 18.0167 238.494 17.0417 238.044 16.225C237.611 15.3917 237.011 14.7583 236.244 14.325C235.478 13.8917 234.611 13.675 233.644 13.675C232.711 13.675 231.853 13.9 231.069 14.35C230.303 14.8 229.694 15.4417 229.244 16.275C228.794 17.1083 228.569 18.075 228.569 19.175C228.569 20.275 228.794 21.2417 229.244 22.075C229.694 22.9083 230.303 23.55 231.069 24C231.853 24.45 232.711 24.675 233.644 24.675C234.611 24.675 235.478 24.4583 236.244 24.025C237.011 23.575 237.611 22.9333 238.044 22.1C238.494 21.25 238.719 20.2667 238.719 19.15ZM244.014 26.125C243.648 26.125 243.339 26 243.089 25.75C242.856 25.5 242.739 25.1917 242.739 24.825C242.739 24.4583 242.856 24.1583 243.089 23.925C243.339 23.675 243.648 23.55 244.014 23.55C244.364 23.55 244.656 23.675 244.889 23.925C245.139 24.1583 245.264 24.4583 245.264 24.825C245.264 25.1917 245.139 25.5 244.889 25.75C244.656 26 244.364 26.125 244.014 26.125Z" fill="#F9B3FF"/>
<defs>
<clipPath id="clip0_1286_2752">
<rect width="50.7592" height="36" fill="white"/>
</clipPath>
</defs>
</svg>
