<svg width="150" height="29" viewBox="0 0 150 29" fill="none" xmlns="http://www.w3.org/2000/svg">
<path d="M66.2798 9.624C66.2798 10.6813 66.0371 11.652 65.5518 12.536C65.0665 13.4027 64.3211 14.1047 63.3158 14.642C62.3105 15.1793 61.0625 15.448 59.5718 15.448H56.8158V22H52.3698V3.748H59.5718C61.0278 3.748 62.2585 3.99933 63.2638 4.502C64.2691 5.00467 65.0231 5.698 65.5258 6.582C66.0285 7.466 66.2798 8.48 66.2798 9.624ZM59.2338 11.912C60.0831 11.912 60.7158 11.7127 61.1318 11.314C61.5478 10.9153 61.7558 10.352 61.7558 9.624C61.7558 8.896 61.5478 8.33267 61.1318 7.934C60.7158 7.53533 60.0831 7.336 59.2338 7.336H56.8158V11.912H59.2338ZM67.7104 14.72C67.7104 13.2293 67.9878 11.9207 68.5424 10.794C69.1144 9.66733 69.8858 8.80067 70.8564 8.194C71.8271 7.58733 72.9104 7.284 74.1064 7.284C75.1291 7.284 76.0218 7.492 76.7844 7.908C77.5644 8.324 78.1624 8.87 78.5784 9.546V7.492H83.0244V22H78.5784V19.946C78.1451 20.622 77.5384 21.168 76.7584 21.584C75.9958 22 75.1031 22.208 74.0804 22.208C72.9018 22.208 71.8271 21.9047 70.8564 21.298C69.8858 20.674 69.1144 19.7987 68.5424 18.672C67.9878 17.528 67.7104 16.2107 67.7104 14.72ZM78.5784 14.746C78.5784 13.6367 78.2664 12.7613 77.6424 12.12C77.0358 11.4787 76.2904 11.158 75.4064 11.158C74.5224 11.158 73.7684 11.4787 73.1444 12.12C72.5378 12.744 72.2344 13.6107 72.2344 14.72C72.2344 15.8293 72.5378 16.7133 73.1444 17.372C73.7684 18.0133 74.5224 18.334 75.4064 18.334C76.2904 18.334 77.0358 18.0133 77.6424 17.372C78.2664 16.7307 78.5784 15.8553 78.5784 14.746ZM101.061 7.492L91.9609 28.89H87.1769L90.5049 21.506L84.6029 7.492H89.5689L92.9229 16.566L96.2509 7.492H101.061ZM109.273 22.208C107.851 22.208 106.569 21.9047 105.425 21.298C104.298 20.6913 103.405 19.8247 102.747 18.698C102.105 17.5713 101.785 16.254 101.785 14.746C101.785 13.2553 102.114 11.9467 102.773 10.82C103.431 9.676 104.333 8.80067 105.477 8.194C106.621 7.58733 107.903 7.284 109.325 7.284C110.746 7.284 112.029 7.58733 113.173 8.194C114.317 8.80067 115.218 9.676 115.877 10.82C116.535 11.9467 116.865 13.2553 116.865 14.746C116.865 16.2367 116.527 17.554 115.851 18.698C115.192 19.8247 114.282 20.6913 113.121 21.298C111.977 21.9047 110.694 22.208 109.273 22.208ZM109.273 18.36C110.122 18.36 110.841 18.048 111.431 17.424C112.037 16.8 112.341 15.9073 112.341 14.746C112.341 13.5847 112.046 12.692 111.457 12.068C110.885 11.444 110.174 11.132 109.325 11.132C108.458 11.132 107.739 11.444 107.167 12.068C106.595 12.6747 106.309 13.5673 106.309 14.746C106.309 15.9073 106.586 16.8 107.141 17.424C107.713 18.048 108.423 18.36 109.273 18.36ZM123.669 2.76V22H119.223V2.76H123.669ZM129.127 5.984C128.347 5.984 127.706 5.75867 127.203 5.308C126.718 4.84 126.475 4.268 126.475 3.592C126.475 2.89867 126.718 2.32667 127.203 1.876C127.706 1.408 128.347 1.174 129.127 1.174C129.89 1.174 130.514 1.408 130.999 1.876C131.502 2.32667 131.753 2.89867 131.753 3.592C131.753 4.268 131.502 4.84 130.999 5.308C130.514 5.75867 129.89 5.984 129.127 5.984ZM131.337 7.492V22H126.891V7.492H131.337ZM148.235 14.512C148.235 14.928 148.209 15.3613 148.157 15.812H138.095C138.165 16.7133 138.451 17.4067 138.953 17.892C139.473 18.36 140.106 18.594 140.851 18.594C141.961 18.594 142.732 18.126 143.165 17.19H147.897C147.655 18.1433 147.213 19.0013 146.571 19.764C145.947 20.5267 145.159 21.1247 144.205 21.558C143.252 21.9913 142.186 22.208 141.007 22.208C139.586 22.208 138.321 21.9047 137.211 21.298C136.102 20.6913 135.235 19.8247 134.611 18.698C133.987 17.5713 133.675 16.254 133.675 14.746C133.675 13.238 133.979 11.9207 134.585 10.794C135.209 9.66733 136.076 8.80067 137.185 8.194C138.295 7.58733 139.569 7.284 141.007 7.284C142.411 7.284 143.659 7.57867 144.751 8.168C145.843 8.75733 146.693 9.598 147.299 10.69C147.923 11.782 148.235 13.056 148.235 14.512ZM143.685 13.342C143.685 12.5793 143.425 11.9727 142.905 11.522C142.385 11.0713 141.735 10.846 140.955 10.846C140.21 10.846 139.577 11.0627 139.057 11.496C138.555 11.9293 138.243 12.5447 138.121 13.342H143.685Z" fill="#F79AFF"/>
<path fill-rule="evenodd" clip-rule="evenodd" d="M0.0149317 5.38949C0.230019 2.37707 2.74203 0 5.80923 0H31.9508C35.018 0 37.53 2.37707 37.7451 5.38949H0.0149317ZM0 10.7455H37.76V20.9709C37.76 24.1793 35.1591 26.7802 31.9508 26.7802H5.80923C2.60088 26.7802 0 24.1793 0 20.9709V10.7455ZM6.15947 15.3986C5.05017 15.3986 4.15093 16.2979 4.15093 17.4071V20.4199C4.15093 21.5291 5.05017 22.4284 6.15947 22.4284C7.26868 22.4284 8.16795 21.5291 8.16795 20.4199V17.4071C8.16795 16.2979 7.26868 15.3986 6.15947 15.3986ZM10.5112 14.8965C10.5112 13.7872 11.4104 12.888 12.5197 12.888C13.629 12.888 14.5282 13.7872 14.5282 14.8965V22.9305C14.5282 24.0398 13.629 24.9391 12.5197 24.9391C11.4104 24.9391 10.5112 24.0398 10.5112 22.9305V14.8965ZM18.88 15.3986C17.7707 15.3986 16.8715 16.2979 16.8715 17.4071V20.4199C16.8715 21.5291 17.7707 22.4284 18.88 22.4284C19.9893 22.4284 20.8885 21.5291 20.8885 20.4199V17.4071C20.8885 16.2979 19.9893 15.3986 18.88 15.3986ZM23.2318 14.8965C23.2318 13.7872 24.131 12.888 25.2403 12.888C26.3496 12.888 27.2488 13.7872 27.2488 14.8965V22.9305C27.2488 24.0398 26.3496 24.9391 25.2403 24.9391C24.131 24.9391 23.2318 24.0398 23.2318 22.9305V14.8965ZM31.6006 15.3986C30.4913 15.3986 29.592 16.2979 29.592 17.4071V20.4199C29.592 21.5291 30.4913 22.4284 31.6006 22.4284C32.7098 22.4284 33.6091 21.5291 33.6091 20.4199V17.4071C33.6091 16.2979 32.7098 15.3986 31.6006 15.3986Z" fill="#F79AFF"/>
</svg>
