<svg width="181" height="36" viewBox="0 0 181 36" fill="none" xmlns="http://www.w3.org/2000/svg">
<g clip-path="url(#clip0_657_328)">
<path fill-rule="evenodd" clip-rule="evenodd" d="M0.0200721 7.24486C0.309205 3.19539 3.68599 0 7.80911 0H42.9501C47.0732 0 50.4499 3.19539 50.7391 7.24486H0.0200721ZM0 14.4447H50.7592V28.1903C50.7592 32.5032 47.2629 35.9995 42.9501 35.9995H7.80911C3.49625 35.9995 0 32.5032 0 28.1903V14.4447ZM8.27992 20.6997C6.78874 20.6997 5.57992 21.9085 5.57992 23.3997V27.4496C5.57992 28.9407 6.78874 30.1496 8.27992 30.1496C9.77099 30.1496 10.9798 28.9407 10.9798 27.4496V23.3997C10.9798 21.9085 9.77099 20.6997 8.27992 20.6997ZM14.1298 20.0247C14.1298 18.5335 15.3386 17.3247 16.8297 17.3247C18.3209 17.3247 19.5297 18.5335 19.5297 20.0247V30.8245C19.5297 32.3157 18.3209 33.5245 16.8297 33.5245C15.3386 33.5245 14.1298 32.3157 14.1298 30.8245V20.0247ZM25.3796 20.6997C23.8884 20.6997 22.6797 21.9085 22.6797 23.3997V27.4496C22.6797 28.9407 23.8884 30.1496 25.3796 30.1496C26.8707 30.1496 28.0796 28.9407 28.0796 27.4496V23.3997C28.0796 21.9085 26.8707 20.6997 25.3796 20.6997ZM31.2295 20.0247C31.2295 18.5335 32.4383 17.3247 33.9295 17.3247C35.4206 17.3247 36.6294 18.5335 36.6294 20.0247V30.8245C36.6294 32.3157 35.4206 33.5245 33.9295 33.5245C32.4383 33.5245 31.2295 32.3157 31.2295 30.8245V20.0247ZM42.4794 20.6997C40.9882 20.6997 39.7794 21.9085 39.7794 23.3997V27.4496C39.7794 28.9407 40.9882 30.1496 42.4794 30.1496C43.9704 30.1496 45.1793 28.9407 45.1793 27.4496V23.3997C45.1793 21.9085 43.9704 20.6997 42.4794 20.6997Z" fill="white"/>
</g>
<path d="M84.6698 13.72C84.6698 14.94 84.3898 16.06 83.8298 17.08C83.2698 18.08 82.4098 18.89 81.2498 19.51C80.0898 20.13 78.6498 20.44 76.9298 20.44H73.7498V28H68.6198V6.94H76.9298C78.6098 6.94 80.0298 7.23 81.1898 7.81C82.3498 8.39 83.2198 9.19 83.7998 10.21C84.3798 11.23 84.6698 12.4 84.6698 13.72ZM76.5398 16.36C77.5198 16.36 78.2498 16.13 78.7298 15.67C79.2098 15.21 79.4498 14.56 79.4498 13.72C79.4498 12.88 79.2098 12.23 78.7298 11.77C78.2498 11.31 77.5198 11.08 76.5398 11.08H73.7498V16.36H76.5398ZM86.3205 19.6C86.3205 17.88 86.6405 16.37 87.2805 15.07C87.9405 13.77 88.8305 12.77 89.9505 12.07C91.0705 11.37 92.3205 11.02 93.7005 11.02C94.8805 11.02 95.9105 11.26 96.7905 11.74C97.6905 12.22 98.3805 12.85 98.8605 13.63V11.26H103.99V28H98.8605V25.63C98.3605 26.41 97.6605 27.04 96.7605 27.52C95.8805 28 94.8505 28.24 93.6705 28.24C92.3105 28.24 91.0705 27.89 89.9505 27.19C88.8305 26.47 87.9405 25.46 87.2805 24.16C86.6405 22.84 86.3205 21.32 86.3205 19.6ZM98.8605 19.63C98.8605 18.35 98.5005 17.34 97.7805 16.6C97.0805 15.86 96.2205 15.49 95.2005 15.49C94.1805 15.49 93.3105 15.86 92.5905 16.6C91.8905 17.32 91.5405 18.32 91.5405 19.6C91.5405 20.88 91.8905 21.9 92.5905 22.66C93.3105 23.4 94.1805 23.77 95.2005 23.77C96.2205 23.77 97.0805 23.4 97.7805 22.66C98.5005 21.92 98.8605 20.91 98.8605 19.63ZM124.802 11.26L114.302 35.95H108.782L112.622 27.43L105.812 11.26H111.542L115.412 21.73L119.252 11.26H124.802ZM134.277 28.24C132.637 28.24 131.157 27.89 129.837 27.19C128.537 26.49 127.507 25.49 126.747 24.19C126.007 22.89 125.637 21.37 125.637 19.63C125.637 17.91 126.017 16.4 126.777 15.1C127.537 13.78 128.577 12.77 129.897 12.07C131.217 11.37 132.697 11.02 134.337 11.02C135.977 11.02 137.457 11.37 138.777 12.07C140.097 12.77 141.137 13.78 141.897 15.1C142.657 16.4 143.037 17.91 143.037 19.63C143.037 21.35 142.647 22.87 141.867 24.19C141.107 25.49 140.057 26.49 138.717 27.19C137.397 27.89 135.917 28.24 134.277 28.24ZM134.277 23.8C135.257 23.8 136.087 23.44 136.767 22.72C137.467 22 137.817 20.97 137.817 19.63C137.817 18.29 137.477 17.26 136.797 16.54C136.137 15.82 135.317 15.46 134.337 15.46C133.337 15.46 132.507 15.82 131.847 16.54C131.187 17.24 130.857 18.27 130.857 19.63C130.857 20.97 131.177 22 131.817 22.72C132.477 23.44 133.297 23.8 134.277 23.8ZM150.888 5.8V28H145.758V5.8H150.888ZM157.186 9.52C156.286 9.52 155.546 9.26 154.966 8.74C154.406 8.2 154.126 7.54 154.126 6.76C154.126 5.96 154.406 5.3 154.966 4.78C155.546 4.24 156.286 3.97 157.186 3.97C158.066 3.97 158.786 4.24 159.346 4.78C159.926 5.3 160.216 5.96 160.216 6.76C160.216 7.54 159.926 8.2 159.346 8.74C158.786 9.26 158.066 9.52 157.186 9.52ZM159.736 11.26V28H154.606V11.26H159.736ZM179.234 19.36C179.234 19.84 179.204 20.34 179.144 20.86H167.534C167.614 21.9 167.944 22.7 168.524 23.26C169.124 23.8 169.854 24.07 170.714 24.07C171.994 24.07 172.884 23.53 173.384 22.45H178.844C178.564 23.55 178.054 24.54 177.314 25.42C176.594 26.3 175.684 26.99 174.584 27.49C173.484 27.99 172.254 28.24 170.894 28.24C169.254 28.24 167.794 27.89 166.514 27.19C165.234 26.49 164.234 25.49 163.514 24.19C162.794 22.89 162.434 21.37 162.434 19.63C162.434 17.89 162.784 16.37 163.484 15.07C164.204 13.77 165.204 12.77 166.484 12.07C167.764 11.37 169.234 11.02 170.894 11.02C172.514 11.02 173.954 11.36 175.214 12.04C176.474 12.72 177.454 13.69 178.154 14.95C178.874 16.21 179.234 17.68 179.234 19.36ZM173.984 18.01C173.984 17.13 173.684 16.43 173.084 15.91C172.484 15.39 171.734 15.13 170.834 15.13C169.974 15.13 169.244 15.38 168.644 15.88C168.064 16.38 167.704 17.09 167.564 18.01H173.984Z" fill="white"/>
<defs>
<clipPath id="clip0_657_328">
<rect width="50.7592" height="36" fill="white"/>
</clipPath>
</defs>
</svg>
